PathFileType	4	(x/y/z)	S06_M20_T24
DataRate	CameraRate	NumFrames	NumMarkers	Units	OrigDataRate	OrigDataStartFrame	OrigNumFrames
240	240	6	51	mm	240	241	481
Frame#	Time	Sternum			R.Acromium			L.Acromium			Top.Head			R.ASIS			L.ASIS			R.PSIS			L.PSIS			R.Great.Tro			L.Great.Tro			R.Iliac.Crest			L.Iliac.Crest			V.Sacral			R.Thigh.Upper.Post			R.Thigh.Lower.Ant			R.Thigh.Lower.Post			R.Thigh.Upper.Ant			R.Knee.Lat			R.Knee.Med			R.Shank.Upper.Post			R.Shank.Lower.Ant			R.Shank.Lower.Post			R.Shank.Upper.Ant			R.Ankle.Lat			R.Ankle.Med			R.Heel.Upper			R.Heel.Med			R.Heel.Lat			R.Toe.Lat			R.Toe.Med			R.Toe.Tip			L.Thigh.Upper.Post			L.Thigh.Lower.Ant			L.Thigh.Lower.Post			L.Thigh.Upper.Ant			L.Knee.Lat			L.Knee.Med			L.Shank.Upper.Post			L.Shank.Lower.Ant			L.Shank.Lower.Post			L.Shank.Upper.Ant			L.Ankle.Lat			L.Ankle.Med			L.Heel.Upper			L.Heel.Med			L.Heel.Lat			L.Toe.Lat			L.Toe.Med			L.Toe.Tip			Cervical.Spine			Back			
		X1	Y1	Z1	X2	Y2	Z2	X3	Y3	Z3	X4	Y4	Z4	X5	Y5	Z5	X6	Y6	Z6	X7	Y7	Z7	X8	Y8	Z8	X9	Y9	Z9	X10	Y10	Z10	X11	Y11	Z11	X12	Y12	Z12	X13	Y13	Z13	X14	Y14	Z14	X15	Y15	Z15	X16	Y16	Z16	X17	Y17	Z17	X18	Y18	Z18	X19	Y19	Z19	X20	Y20	Z20	X21	Y21	Z21	X22	Y22	Z22	X23	Y23	Z23	X24	Y24	Z24	X25	Y25	Z25	X26	Y26	Z26	X27	Y27	Z27	X28	Y28	Z28	X29	Y29	Z29	X30	Y30	Z30	X31	Y31	Z31	X32	Y32	Z32	X33	Y33	Z33	X34	Y34	Z34	X35	Y35	Z35	X36	Y36	Z36	X37	Y37	Z37	X38	Y38	Z38	X39	Y39	Z39	X40	Y40	Z40	X41	Y41	Z41	X42	Y42	Z42	X43	Y43	Z43	X44	Y44	Z44	X45	Y45	Z45	X46	Y46	Z46	X47	Y47	Z47	X48	Y48	Z48	X49	Y49	Z49	X50	Y50	Z50	X51	Y51	Z51	

241	1	-269.79	1298.8	300.43	-391.87	1500.6	475.65	-417.29	1504.3	125.74	-345.27	1816.7	303.99	-304.32	1069.7	433.64	-295.58	1060.6	179.81	NaN	NaN	NaN	-501.05	1075.2	255.25	-364.6	992.13	480.99	-383.2	976.95	127.14	-393.62	1138	462.1	-373.05	1127.2	140.57	-514.08	1041.1	300.77	-364.35	740.39	454.24	-309.92	660.43	416.78	-378.5	655.18	430.61	-292.75	747.63	438.08	-364.39	542.78	409.83	-359.05	556.13	281.84	-430.8	317.84	390.75	-375.15	250.45	366.64	-442.28	243.29	369.5	-366.2	323.69	386.13	-424.41	113.2	334.2	-406.73	124.13	252.19	-490.78	78.847	282.54	-482.4	47.384	252.26	-484.2	47.414	317.56	-308	36.809	363.67	-279.73	42.167	242.27	-214.32	51.46	289.99	-232.69	745.46	134.9	-167.15	679.32	194.61	-224.05	654.77	145.14	-183.4	772.69	180.59	-232.47	564.12	157.3	-209.17	559.06	279.81	-390.65	410.72	148.52	-374.7	323.71	140.95	-437.26	354.2	157.69	-332.28	380.71	137.43	-481.16	215.88	140.83	-464.48	216.5	229.81	-567.86	222.37	185.03	-583.01	193.59	211.8	-575.51	204.33	151.08	-433.87	98.033	108.48	-426.74	73.325	223.94	-354.19	52.595	172.93	-455.51	1553.6	304.7	-510.18	1279.4	303.45
242	1.0042	-264.93	1299	300.57	-386.74	1500.9	475.73	-412.54	1504.4	125.85	-340.39	1816.9	303.86	-299.83	1069.6	433.97	-290.61	1060.8	180.14	NaN	NaN	NaN	-496.26	1075.4	255.13	-360.5	992.14	481.06	-377.83	977.26	127.17	-389.16	1138.1	462.21	-367.83	1127.4	140.68	-509.33	1041.3	300.58	-361.8	740.58	454.07	-307.89	660.31	416.77	-376.48	655.44	430.5	-290.13	747.36	438.05	-363.21	542.87	409.79	-357.67	556.19	281.76	-430.28	318.11	390.63	-374.81	250.6	366.54	-441.91	243.57	369.37	-365.66	323.82	386.08	-424.26	113.39	334.11	-406.6	124.25	252.11	-490.71	79.025	282.43	-482.39	47.49	252.17	-484.14	47.59	317.48	-307.98	36.794	363.64	-279.65	42.169	242.27	-214.26	51.335	290.01	-225.67	746.71	135.73	-159.96	681.11	195.82	-216.48	656.09	146.18	-176.8	774.32	181.61	-224.23	565.44	158.39	-201.37	560.64	280.85	-379.87	409.28	149.1	-362.32	322.61	141.19	-425.39	351.86	158.1	-320.97	380.39	137.88	-466.72	212.66	140.71	-449.99	213.31	229.68	-553.68	216.88	184.86	-568.1	187.63	211.55	-560.83	198.75	150.86	-416.58	96.135	107.97	-408.83	71.279	223.36	-335.83	52.465	172.3	-450.52	1553.8	304.83	-505.34	1279.6	303.64
243	1.0083	-260.07	1299.1	300.71	-381.63	1501	475.8	-407.78	1504.5	125.96	-335.51	1817	303.74	-295.33	1069.5	434.28	-285.64	1061	180.45	NaN	NaN	NaN	-491.47	1075.6	255.02	-356.37	992.14	481.13	-372.48	977.52	127.19	-384.68	1138.1	462.3	-362.62	1127.6	140.78	-504.58	1041.4	300.39	-359.25	740.76	453.9	-305.89	660.19	416.74	-374.46	655.68	430.39	-287.52	747.07	438.01	-362.03	542.94	409.74	-356.31	556.24	281.69	-429.76	318.38	390.5	-374.49	250.75	366.41	-441.53	243.87	369.25	-365.14	323.95	386.02	-424.11	113.58	334.01	-406.47	124.37	252.04	-490.64	79.2	282.31	-482.35	47.597	252.08	-484.07	47.766	317.4	-307.96	36.776	363.62	-279.57	42.174	242.27	-214.2	51.211	290.03	-218.75	747.91	136.56	-152.87	682.84	197.01	-209.03	657.35	147.21	-170.29	775.89	182.63	-216.11	566.7	159.46	-193.67	562.16	281.87	-369.11	407.75	149.69	-349.93	321.45	141.47	-413.49	349.44	158.53	-309.66	380	138.36	-452.18	209.39	140.66	-435.38	210.1	229.62	-539.33	211.35	184.77	-553	181.65	211.39	-545.98	193.11	150.72	-399.21	94.24	107.54	-390.8	69.284	222.88	-317.41	52.384	171.77	-445.53	1553.9	304.95	-500.51	1279.8	303.83
244	1.0125	-255.21	1299.2	300.85	-376.52	1501.2	475.87	-403	1504.6	126.07	-330.64	1817.1	303.61	-290.83	1069.3	434.58	-280.67	1061.1	180.75	NaN	NaN	NaN	-486.68	1075.8	254.91	-352.21	992.11	481.19	-367.16	977.74	127.22	-380.17	1138.1	462.38	-357.43	1127.8	140.87	-499.83	1041.6	300.21	-356.71	740.91	453.74	-303.91	660.06	416.69	-372.45	655.91	430.28	-284.92	746.78	437.97	-360.85	543.01	409.69	-354.98	556.28	281.62	-429.24	318.65	390.37	-374.18	250.91	366.28	-441.16	244.16	369.12	-364.63	324.08	385.97	-423.95	113.76	333.91	-406.34	124.5	251.97	-490.57	79.372	282.19	-482.28	47.704	252.01	-484.01	47.939	317.32	-307.94	36.756	363.59	-279.5	42.183	242.27	-214.15	51.088	290.04	-211.94	749.05	137.4	-145.88	684.49	198.18	-201.7	658.56	148.24	-163.86	777.39	183.64	-208.11	567.9	160.52	-186.06	563.62	282.87	-358.36	406.13	150.27	-337.5	320.24	141.78	-401.56	346.93	158.97	-298.38	379.57	138.86	-437.54	206.08	140.67	-420.65	206.88	229.63	-524.82	205.77	184.75	-537.72	175.65	211.33	-530.96	187.43	150.67	-381.77	92.354	107.21	-372.65	67.35	222.49	-298.96	52.358	171.35	-440.54	1554.1	305.06	-495.67	1279.9	304
245	1.0167	-250.34	1299.3	300.99	-371.42	1501.3	475.93	-398.22	1504.6	126.17	-325.76	1817.2	303.49	-286.32	1069.1	434.85	-275.72	1061.3	181.02	NaN	NaN	NaN	-481.9	1075.9	254.81	-348.03	992.07	481.24	-361.87	977.92	127.24	-375.63	1138.1	462.46	-352.25	1127.9	140.95	-495.09	1041.6	300.03	-354.18	741.05	453.58	-301.93	659.92	416.63	-370.43	656.12	430.17	-282.32	746.46	437.92	-359.67	543.07	409.63	-353.66	556.3	281.56	-428.73	318.91	390.24	-373.9	251.06	366.14	-440.79	244.45	369	-364.12	324.21	385.91	-423.8	113.93	333.81	-406.2	124.63	251.9	-490.49	79.539	282.07	-482.18	47.811	251.93	-483.96	48.11	317.23	-307.92	36.732	363.55	-279.42	42.193	242.27	-214.09	50.965	290.06	-205.23	750.13	138.25	-139.01	686.08	199.34	-194.49	659.72	149.27	-157.51	778.82	184.64	-200.24	569.05	161.55	-178.55	565.02	283.85	-347.61	404.43	150.85	-325.05	318.99	142.14	-389.6	344.35	159.44	-287.1	379.08	139.39	-422.81	202.74	140.74	-405.8	203.65	229.7	-510.15	200.16	184.81	-522.25	169.66	211.35	-515.77	181.71	150.7	-364.25	90.487	106.98	-354.4	65.483	222.22	-280.46	52.396	171.02	-435.56	1554.1	305.17	-490.84	1280	304.17
246	1.0208	-245.47	1299.3	301.13	-366.33	1501.4	476	-393.42	1504.6	126.27	-320.89	1817.2	303.38	-281.8	1068.9	435.11	-270.76	1061.3	181.27	NaN	NaN	NaN	-477.11	1076	254.71	-343.82	992.01	481.28	-356.61	978.06	127.27	-371.07	1138.1	462.52	-347.11	1128	141.03	-490.35	1041.7	299.87	-351.65	741.16	453.43	-299.97	659.76	416.56	-368.41	656.32	430.06	-279.74	746.14	437.87	-358.48	543.13	409.57	-352.36	556.32	281.5	-428.22	319.17	390.1	-373.64	251.22	365.99	-440.42	244.75	368.88	-363.62	324.35	385.85	-423.64	114.1	333.7	-406.05	124.77	251.83	-490.41	79.7	281.94	-482.05	47.914	251.87	-483.9	48.278	317.13	-307.9	36.705	363.52	-279.36	42.204	242.27	-214.03	50.841	290.08	-198.62	751.15	139.1	-132.24	687.59	200.49	-187.4	660.81	150.29	-151.25	780.17	185.63	-192.49	570.14	162.56	-171.13	566.35	284.8	-336.86	402.64	151.42	-312.57	317.69	142.55	-377.6	341.69	159.92	-275.84	378.54	139.94	-407.98	199.38	140.88	-390.84	200.42	229.85	-495.31	194.54	184.94	-506.6	163.67	211.47	-500.42	175.98	150.81	-346.67	88.649	106.85	-336.06	63.694	222.06	-261.93	52.505	170.81	-430.57	1554.2	305.28	-486	1280.1	304.33
